<svg width="20" height="20" viewBox="0 0 20 20" fill="none" xmlns="http://www.w3.org/2000/svg">
<path d="M9.13462 10.8654H3.36538C3.12019 10.8654 2.91471 10.7824 2.74894 10.6164C2.58298 10.4505 2.5 10.2449 2.5 9.99971C2.5 9.75433 2.58298 9.54885 2.74894 9.38327C2.91471 9.2175 3.12019 9.13462 3.36538 9.13462H9.13462V3.36538C9.13462 3.12019 9.2176 2.91471 9.38356 2.74894C9.54952 2.58298 9.7551 2.5 10.0003 2.5C10.2457 2.5 10.4512 2.58298 10.6167 2.74894C10.7825 2.91471 10.8654 3.12019 10.8654 3.36538V9.13462H16.6346C16.8798 9.13462 17.0853 9.2176 17.2511 9.38356C17.417 9.54952 17.5 9.7551 17.5 10.0003C17.5 10.2457 17.417 10.4512 17.2511 10.6167C17.0853 10.7825 16.8798 10.8654 16.6346 10.8654H10.8654V16.6346C10.8654 16.8798 10.7824 17.0853 10.6164 17.2511C10.4505 17.417 10.2449 17.5 9.99971 17.5C9.75433 17.5 9.54885 17.417 9.38327 17.2511C9.2175 17.0853 9.13462 16.8798 9.13462 16.6346V10.8654Z" fill="black" fill-opacity="0.65"/>
</svg>
