<svg width="16" height="16" viewBox="0 0 16 16" fill="none" xmlns="http://www.w3.org/2000/svg">
<path d="M8.76667 4.80667L9.40667 5.04667C10.1267 5.31333 10.68 5.86667 10.9333 6.55333L11.18 7.22667C11.2267 7.36667 11.4333 7.36667 11.48 7.22667L11.7267 6.55333C11.98 5.86667 12.5333 5.31333 13.2533 5.04667L13.8933 4.80667C14.0267 4.76 14.0267 4.57333 13.8933 4.52667L13.2533 4.28667C12.5333 4.02 11.98 3.46667 11.7267 2.78L11.48 2.10667C11.4333 1.96667 11.2267 1.96667 11.18 2.10667L10.9333 2.78C10.68 3.46667 10.1267 4.02 9.40667 4.28667L8.76667 4.52667C8.63333 4.57333 8.63333 4.76 8.76667 4.80667Z" fill="url(#paint0_linear_4552_271731)"/>
<path d="M13.3333 7.33333C12.9667 7.33333 12.6667 7.63333 12.6667 8V12.6667H3.33333V3.33333H8C8.36667 3.33333 8.66667 3.03333 8.66667 2.66667C8.66667 2.3 8.36667 2 8 2H3.26C2.56667 2 2 2.56667 2 3.26V12.74C2 13.4333 2.56667 14 3.26 14H12.74C13.4333 14 14 13.4333 14 12.74V8C14 7.63333 13.7 7.33333 13.3333 7.33333Z" fill="url(#paint1_linear_4552_271731)"/>
<path d="M9.6 8.62667C9.54 8.54667 9.46 8.50667 9.36 8.50667C9.26 8.50667 9.18 8.54667 9.12 8.62667L7.54667 10.7267L6.42667 9.23333C6.36667 9.15333 6.28667 9.11333 6.18667 9.11333C6.08667 9.11333 6.00667 9.15333 5.94667 9.23333L4.74 10.8533C4.66 10.9533 4.64667 11.06 4.70667 11.1733C4.76667 11.2867 4.86 11.34 4.98 11.34H11.0267C11.1467 11.34 11.24 11.2867 11.3 11.1733C11.36 11.06 11.3533 10.96 11.2667 10.8533L9.60667 8.63333L9.6 8.62667Z" fill="url(#paint2_linear_4552_271731)"/>
<defs>
<linearGradient id="paint0_linear_4552_271731" x1="-0.113636" y1="8" x2="16.0842" y2="7.30967" gradientUnits="userSpaceOnUse">
<stop stop-color="#E0D0EE"/>
<stop offset="0.28" stop-color="#9F80F8"/>
<stop offset="0.77" stop-color="#1079E2"/>
</linearGradient>
<linearGradient id="paint1_linear_4552_271731" x1="-0.113636" y1="8" x2="16.0842" y2="7.30967" gradientUnits="userSpaceOnUse">
<stop stop-color="#E0D0EE"/>
<stop offset="0.28" stop-color="#9F80F8"/>
<stop offset="0.77" stop-color="#1079E2"/>
</linearGradient>
<linearGradient id="paint2_linear_4552_271731" x1="-0.113636" y1="8" x2="16.0842" y2="7.30967" gradientUnits="userSpaceOnUse">
<stop stop-color="#E0D0EE"/>
<stop offset="0.28" stop-color="#9F80F8"/>
<stop offset="0.77" stop-color="#1079E2"/>
</linearGradient>
</defs>
</svg>
